<svg data-name="Layer 1" xmlns="http://www.w3.org/2000/svg" width="656.29" height="199.993" viewBox="0 0 492.217 149.994"><path d="M105.146 1.73H78.382L49.895 148.254l23.357.013 4.322-26.8h26.151l4.54 26.8h25.33zM80.817 101.797l9.724-58.786h.217l9.727 58.786zM40.923 83.643H24.64v64.624H0V1.73h56.834l-3.899 20.1H24.64v41.93h20.168zM127.977 1.73h65.49v20.1H173.15v126.437h-24.854V21.83h-20.319zm221.22 108.713V39.551C349.198 16.643 360.004 0 385.939 0c27.233 0 34.8 15.13 34.8 36.743v12.018h-22.48V34.797c0-9.078-3.022-14.265-11.887-14.265-8.86 0-12.535 6.268-12.535 15.13v78.673c0 8.86 3.675 15.127 12.535 15.127 8.865 0 11.886-5.619 11.886-14.262v-13.84h22.481v12.11c0 20.965-8.648 36.524-34.8 36.524-25.935 0-36.74-16.856-36.74-39.55zm110.73 17.724h32.214v20.1h-56.834V1.73h56.91l-3.899 20.1h-28.39v41.93h20.163l-3.855 19.884h-16.308zM313.358 1.73h-26.764l-28.487 146.524 23.357.013 4.322-26.8h26.151l4.54 26.8h25.331zm-24.329 100.067l9.725-58.786h.216l9.727 58.786zm-39.894-18.154h-16.282v64.624h-24.64V1.73h56.833l-3.898 20.1h-28.295v41.93h20.168z" fill="#fff"/></svg>